# Blender v2.90.1 OBJ File: 'house.blend'
# www.blender.org
mtllib house.mtl
o di_Plane
v 3.493671 0.100000 2.400000
v 3.593681 -0.000010 2.500010
v -3.886491 -0.000010 2.500010
v -3.786481 0.100000 2.400000
v 0.070607 3.105751 2.361713
v 0.070607 3.005741 2.361713
v 3.493671 1.262618 1.164103
v 3.593681 1.262618 1.164103
v 3.493671 1.262618 0.402997
v 3.593681 1.262618 0.402997
v -2.070474 3.105751 2.361713
v -2.103086 3.005741 2.361713
v -3.094560 3.774426 2.500010
v -3.094560 3.774426 2.400000
v 2.801750 4.966288 2.400000
v 2.801750 4.966288 2.500010
v -3.094560 4.966288 2.400000
v -3.094560 4.966288 2.500010
v 3.493671 3.958325 1.741077
v 3.593681 3.958325 1.741077
v 3.493671 4.849484 1.741077
v 3.593681 4.849484 1.741077
v 2.801750 3.774426 2.500010
v 2.801750 3.774426 2.400000
v -3.886491 5.925121 2.500010
v -3.786481 5.863300 2.400000
v 3.593681 5.925121 2.500010
v 3.493671 5.863300 2.400000
v -0.736036 3.774426 2.500010
v -0.736036 3.774426 2.400000
v 0.443226 3.774426 2.500010
v 0.443226 3.774426 2.400000
v -0.736036 4.966288 2.400000
v -0.736036 4.966288 2.500010
v 0.443226 4.966288 2.400000
v 0.443226 4.966288 2.500010
v -3.786481 0.100000 -2.400000
v -3.886491 -0.000010 -2.500010
v 3.493671 0.100000 -2.400000
v 3.593681 -0.000010 -2.500010
v 0.070607 3.105751 1.183766
v 0.070607 3.005741 1.183766
v -2.070474 3.105751 1.183766
v -2.103086 3.005741 1.183766
v -3.094560 3.774426 -2.400000
v -3.094560 3.774426 -2.500010
v 2.801750 4.966288 -2.500010
v 2.801750 4.966288 -2.400000
v -3.094560 4.966288 -2.500010
v -3.094560 4.966288 -2.400000
v -3.886491 7.174632 0.000000
v -3.786481 7.062826 0.000000
v 3.593681 7.174632 0.000000
v 3.493671 7.062826 0.000000
v 3.593681 3.958325 -1.741078
v 3.493671 3.958325 -1.741078
v 3.493671 5.863300 -2.400000
v 3.593681 5.925121 -2.500010
v 3.593681 4.849484 -1.741078
v 3.493671 4.849484 -1.741078
v 2.801750 3.774426 -2.400000
v 2.801750 3.774426 -2.500010
v -3.786481 5.863300 -2.400000
v -3.886491 5.925121 -2.500010
v -0.736036 3.774426 -2.400000
v -0.736036 3.774426 -2.500010
v 0.443226 3.774426 -2.400000
v 0.443226 3.774426 -2.500010
v -0.736036 4.966288 -2.500010
v -0.736036 4.966288 -2.400000
v 0.443226 4.966288 -2.500010
v 0.443226 4.966288 -2.400000
v 3.493671 3.105751 2.400000
v 3.493671 3.005741 2.400000
v 3.593681 3.005751 2.500010
v 3.493671 3.105751 -2.400000
v 3.493671 3.005741 -2.400000
v 3.593681 3.005751 -2.500010
v -3.786481 3.105751 -2.400000
v -3.886491 3.005751 -2.500010
v -3.786481 3.005741 -2.400000
v -3.886491 3.005751 2.500010
v -3.786481 3.005741 2.400000
v -3.786481 3.105751 2.400000
v 2.015556 0.010955 2.361763
v 2.074512 0.080777 2.361763
v 2.015556 0.010955 1.183815
v 2.074512 0.080777 1.183815
v 3.593681 0.000000 1.164103
v 3.593681 0.000000 0.402997
v 3.493671 0.100000 1.164103
v 3.593681 0.100441 1.164103
v 3.493671 0.100000 0.402997
v 3.593681 0.100441 0.402997
vt 0.944574 0.188905
vt 0.944173 0.244499
vt 0.937809 0.239569
vt 0.928563 0.192660
vt 0.964295 0.500925
vt 0.968346 0.621700
vt 0.962209 0.617270
vt 0.960050 0.508337
vt 0.864798 0.265487
vt 0.769028 0.264589
vt 0.775142 0.255916
vt 0.856711 0.258716
vt 0.855945 0.222546
vt 0.774602 0.225440
vt 0.766805 0.219258
vt 0.862130 0.213222
vt 0.851802 0.283844
vt 0.777743 0.284125
vt 0.783359 0.275264
vt 0.843889 0.277276
vt 0.773955 0.330509
vt 0.887121 0.330227
vt 0.894280 0.334730
vt 0.768902 0.336904
vt 0.791751 0.427148
vt 0.883487 0.424334
vt 0.892152 0.431330
vt 0.784629 0.437672
vt 0.785901 0.403304
vt 0.893913 0.404816
vt 0.886871 0.414601
vt 0.794896 0.410964
vt 0.657410 0.180069
vt 0.655722 0.080742
vt 0.696611 0.081085
vt 0.759571 0.177312
vt 0.926981 0.496171
vt 0.921656 0.488760
vt 0.916098 0.366789
vt 0.922659 0.361235
vt 0.925241 0.621117
vt 0.918973 0.626116
vt 0.921269 0.504262
vt 0.925706 0.510804
vt 0.949929 0.503833
vt 0.954945 0.621735
vt 0.948904 0.617673
vt 0.945760 0.510870
vt 0.882541 0.366264
vt 0.778953 0.366572
vt 0.785739 0.357000
vt 0.873922 0.358990
vt 0.877215 0.388403
vt 0.789028 0.386758
vt 0.780373 0.379498
vt 0.883931 0.378827
vt 0.966025 0.353506
vt 0.964648 0.493942
vt 0.961216 0.497838
vt 0.960338 0.346711
vt 0.843208 0.240921
vt 0.782050 0.243741
vt 0.774322 0.237766
vt 0.848886 0.231198
vt 0.948128 0.494855
vt 0.945922 0.357230
vt 0.949210 0.353557
vt 0.953876 0.500969
vt 0.920735 0.251750
vt 0.994103 0.245337
vt 0.972885 0.277004
vt 0.938386 0.273908
vt 0.972663 0.340268
vt 0.994096 0.361993
vt 0.925050 0.358976
vt 0.937290 0.343370
vt 0.977717 0.633779
vt 0.913944 0.633779
vt 0.913945 0.628365
vt 0.977717 0.628365
vt 0.983131 0.352325
vt 0.983132 0.628365
vt 0.977715 0.350559
vt 0.908529 0.628365
vt 0.908529 0.352325
vt 0.913943 0.350559
vt 0.769248 0.193715
vt 0.847067 0.189443
vt 0.854536 0.195305
vt 0.763324 0.202837
vt 0.778186 0.296575
vt 0.869715 0.289304
vt 0.863711 0.298452
vt 0.785634 0.302460
vt 0.495235 0.374639
vt 0.595807 0.374639
vt 0.595807 0.626617
vt 0.495235 0.626617
vt 0.116443 0.099890
vt 0.116443 0.354381
vt 0.014181 0.354381
vt 0.014181 0.099890
vt 0.861302 0.903906
vt 0.861891 0.994596
vt 0.615816 0.996193
vt 0.615227 0.905504
vt 0.349016 0.556260
vt 0.342864 0.826610
vt 0.241851 0.824311
vt 0.248003 0.553962
vt 0.585738 0.789902
vt 0.613003 0.810327
vt 0.510205 0.813505
vt 0.545925 0.788425
vt 0.421121 0.849726
vt 0.381540 0.853212
vt 0.450428 0.824789
vt 0.696812 0.053132
vt 0.755341 0.005401
vt 0.286555 0.456642
vt 0.116444 0.456644
vt 0.162083 0.396894
vt 0.187789 0.397338
vt 0.634129 0.829822
vt 0.638061 0.877309
vt 0.374524 0.798467
vt 0.425362 0.798944
vt 0.837370 0.875378
vt 0.840615 0.827217
vt 0.861388 0.807390
vt 0.455460 0.557235
vt 0.431252 0.582076
vt 0.380650 0.585280
vt 0.765935 0.437416
vt 0.664317 0.436026
vt 0.388816 0.354381
vt 0.286554 0.354381
vt 0.286554 0.099890
vt 0.388816 0.099890
vt 0.604936 0.455553
vt 0.859582 0.452756
vt 0.860613 0.546605
vt 0.605967 0.549402
vt 0.140838 0.822012
vt 0.146990 0.551663
vt 0.542710 0.669747
vt 0.509556 0.646084
vt 0.611752 0.646510
vt 0.582331 0.668295
vt 0.384131 0.970058
vt 0.423445 0.969908
vt 0.457129 0.993239
vt 0.350764 0.998525
vt 0.651737 0.008556
vt 0.655032 0.053391
vt 0.397454 0.183463
vt 0.392859 0.011619
vt 0.187789 0.354381
vt 0.161894 0.354381
vt 0.468041 0.729957
vt 0.303852 0.914542
vt 0.994840 0.722686
vt 0.955549 0.805472
vt 0.952211 0.641568
vt 0.304292 0.464689
vt 0.350685 0.373953
vt 0.630880 0.577407
vt 0.632080 0.625671
vt 0.109277 0.792880
vt 0.034647 0.820590
vt 0.058784 0.795859
vt 0.836911 0.622878
vt 0.836793 0.574565
vt 0.858050 0.643485
vt 0.064807 0.578969
vt 0.039861 0.553100
vt 0.115530 0.579679
vt 0.756630 0.576847
vt 0.756961 0.623183
vt 0.713132 0.624266
vt 0.708730 0.578327
vt 0.112515 0.663113
vt 0.110842 0.710868
vt 0.062212 0.711183
vt 0.063870 0.663258
vt 0.457129 0.374928
vt 0.983304 0.985914
vt 0.882731 0.985914
vt 0.882731 0.819778
vt 0.983304 0.819778
vt 0.116443 -0.002372
vt 0.286554 -0.002372
vt 0.730823 0.767122
vt 0.732028 0.806758
vt 0.871396 0.007166
vt 0.871582 0.037246
vt 0.801433 0.766155
vt 0.997617 0.175333
vt 0.920678 0.037524
vt 0.800908 0.805976
vt 0.995399 0.002463
vt 0.919659 0.006730
vt 0.000280 0.842476
vt 0.294503 0.848960
vt 0.293014 0.916501
vt -0.001209 0.910017
vt 0.012487 0.994950
vt 0.011343 0.929919
vt 0.292830 0.924972
vt 0.293974 0.990002
vt 0.758264 0.875779
vt 0.379577 0.668800
vt 0.714783 0.877060
vt 0.377343 0.716926
vt 0.761719 0.829729
vt 0.427996 0.664802
vt 0.713837 0.831481
vt 0.425930 0.713066
vt 0.863041 0.224012
vt 0.906697 0.207483
vt 0.910667 0.209382
vt 0.859533 0.227992
vt 0.187789 0.357798
vt 0.161894 0.357798
vt 0.861478 0.189421
vt 0.864134 0.194012
vt 0.862851 0.243818
vt 0.865914 0.240659
vt 0.775597 0.314900
vt 0.883077 0.316086
vt 0.889640 0.320516
vt 0.770960 0.320901
vt 0.939704 0.615471
vt 0.933570 0.620057
vt 0.935690 0.499485
vt 0.940044 0.506529
vt 0.942684 0.494720
vt 0.937431 0.486804
vt 0.931601 0.366947
vt 0.937984 0.361918
vn 0.0000 -1.0000 0.0000
vn 0.0000 1.0000 0.0000
vn -1.0000 0.0000 0.0000
vn 1.0000 0.0000 0.0000
vn 0.0000 0.0000 1.0000
vn 0.0000 0.0000 -1.0000
vn 0.7641 -0.6452 0.0000
vn 0.0000 -0.8945 -0.4471
vn 0.0000 0.8945 0.4471
vn 0.0000 -0.8945 0.4471
vn 0.0000 0.8945 -0.4471
vn 0.5895 0.8078 0.0000
vn -0.5881 -0.8088 0.0000
vn -0.0044 1.0000 0.0000
usemtl Material.001
s off
f 7/1/1 9/2/1 10/3/1 8/4/1
f 24/5/2 32/6/2 31/7/2 23/8/2
f 23/9/3 16/10/3 15/11/3 24/12/3
f 14/13/4 17/14/4 18/15/4 13/16/4
f 55/17/5 59/18/5 60/19/5 56/20/5
f 62/21/2 68/22/2 67/23/2 61/24/2
f 61/25/3 48/26/3 47/27/3 62/28/3
f 46/29/4 49/30/4 50/31/4 45/32/4
f 39/33/3 93/34/3 9/35/3 77/36/3
f 50/37/1 49/38/1 69/39/1 70/40/1
f 46/41/2 45/42/2 65/43/2 66/44/2
f 48/45/1 72/46/1 71/47/1 47/48/1
f 69/49/3 66/50/3 65/51/3 70/52/3
f 72/53/4 67/54/4 68/55/4 71/56/4
f 20/57/2 55/58/2 56/59/2 19/60/2
f 19/61/6 21/62/6 22/63/6 20/64/6
f 59/65/1 22/66/1 21/67/1 60/68/1
f 5/69/3 41/70/3 42/71/3 6/72/3
f 44/73/5 42/71/5 41/70/5 43/74/5
f 11/75/6 5/69/6 6/72/6 12/76/6
f 85/77/7 87/78/7 88/79/7 86/80/7
f 12/81/5 85/82/5 86/80/5 11/83/5
f 87/84/6 44/85/6 43/86/6 88/79/6
f 33/87/3 30/88/3 29/89/3 34/90/3
f 36/91/4 31/92/4 32/93/4 35/94/4
f 4/95/6 83/96/6 74/97/6 1/98/6
f 3/99/5 2/100/5 75/101/5 82/102/5
f 26/103/8 52/104/8 54/105/8 28/106/8
f 25/107/9 27/108/9 53/109/9 51/110/9
f 19/111/3 73/112/3 28/113/3 21/114/3
f 20/115/4 22/116/4 27/108/4 75/117/4
f 77/36/3 9/35/3 7/118/3 74/119/3
f 78/120/4 75/121/4 8/122/4 10/123/4
f 73/112/6 24/124/6 15/125/6 28/106/6
f 75/117/5 27/108/5 16/126/5 23/127/5
f 26/103/6 17/128/6 14/129/6 84/130/6
f 25/107/5 82/131/5 13/132/5 18/133/5
f 77/36/5 81/134/5 37/135/5 39/33/5
f 78/136/6 40/137/6 38/138/6 80/139/6
f 54/140/10 52/141/10 63/142/10 57/143/10
f 53/109/11 58/144/11 64/145/11 51/110/11
f 60/146/3 57/147/3 76/148/3 56/149/3
f 59/150/4 55/151/4 78/152/4 58/153/4
f 1/154/2 91/155/2 93/34/2 39/33/2 37/156/2 4/157/2
f 3/99/1 38/138/1 40/137/1 90/158/1 89/159/1 2/100/1
f 57/147/3 28/113/3 54/160/3
f 58/153/4 53/161/4 27/108/4
f 52/162/4 26/163/4 63/164/4
f 51/165/3 64/166/3 25/107/3
f 48/167/5 61/168/5 76/148/5 57/143/5
f 47/169/6 58/144/6 78/170/6 62/171/6
f 45/172/5 50/173/5 63/142/5 79/174/5
f 46/175/6 80/176/6 64/145/6 49/177/6
f 70/178/5 65/179/5 67/180/5 72/181/5
f 69/182/6 71/183/6 68/184/6 66/185/6
f 76/148/3 73/112/3 19/111/3 56/149/3
f 78/152/4 55/151/4 20/115/4 75/117/4
f 79/174/4 63/164/4 26/163/4 84/130/4
f 80/186/3 82/131/3 25/107/3 64/166/3
f 83/187/4 4/188/4 37/189/4 81/190/4
f 82/191/3 80/192/3 38/138/3 3/99/3
f 76/148/2 41/193/2 5/194/2 73/112/2
f 77/36/1 74/119/1 6/195/1 42/196/1
f 79/174/2 43/197/2 41/193/2 76/148/2
f 81/198/1 77/36/1 42/196/1 44/199/1
f 73/112/2 5/194/2 11/200/2 84/130/2
f 74/119/1 83/201/1 12/202/1 6/195/1
f 84/130/2 11/200/2 43/197/2 79/174/2
f 83/201/1 81/198/1 44/199/1 12/202/1
f 88/203/12 43/204/12 11/205/12 86/206/12
f 87/207/13 85/208/13 12/209/13 44/210/13
f 72/181/5 48/167/5 57/143/5
f 71/183/6 58/144/6 47/169/6
f 70/178/5 63/142/5 50/173/5
f 69/182/6 49/177/6 64/145/6
f 57/143/5 63/142/5 70/178/5 72/181/5
f 58/144/6 71/183/6 69/182/6 64/145/6
f 17/128/6 26/103/6 33/211/6
f 18/133/5 34/212/5 25/107/5
f 15/125/6 35/213/6 28/106/6
f 16/126/5 27/108/5 36/214/5
f 26/103/6 28/106/6 35/213/6 33/211/6
f 25/107/5 34/212/5 36/214/5 27/108/5
f 30/215/6 84/130/6 14/129/6
f 29/216/5 13/132/5 82/131/5
f 32/217/6 24/124/6 73/112/6
f 31/218/5 75/117/5 23/127/5
f 45/172/5 79/174/5 65/179/5
f 46/175/6 66/185/6 80/176/6
f 76/148/5 61/168/5 67/180/5
f 78/170/6 68/184/6 62/171/6
f 73/112/6 84/130/6 30/215/6 32/217/6
f 75/117/5 31/218/5 29/216/5 82/131/5
f 67/180/5 65/179/5 79/174/5 76/148/5
f 68/184/6 78/170/6 80/176/6 66/185/6
f 33/211/6 35/213/6 32/217/6 30/215/6
f 34/212/5 29/216/5 31/218/5 36/214/5
f 60/146/3 21/114/3 28/113/3 57/147/3
f 59/150/4 58/153/4 27/108/4 22/116/4
f 92/219/14 94/220/14 93/221/14 91/222/14
f 90/158/4 94/223/4 92/224/4 89/159/4
f 91/225/6 7/1/6 8/4/6 92/226/6
f 10/3/5 9/2/5 93/227/5 94/228/5
f 7/118/3 91/155/3 1/154/3 74/119/3
f 40/137/4 78/120/4 10/123/4 94/223/4 90/158/4
f 8/122/4 75/121/4 2/100/4 89/159/4 92/224/4
f 16/229/1 36/230/1 35/231/1 15/232/1
f 18/233/1 17/234/1 33/235/1 34/236/1
f 14/237/2 13/238/2 29/239/2 30/240/2
